<svg id="Logotype" xmlns="http://www.w3.org/2000/svg" xmlns:xlink="http://www.w3.org/1999/xlink" width="167.922" height="30.536" viewBox="0 0 167.922 30.536">
  <defs>
    <clipPath id="clip-path">
      <rect id="Rectangle_11" data-name="Rectangle 11" width="36" height="30.536" fill="none"/>
    </clipPath>
  </defs>
  <g id="Lion">
    <g id="Group_10" data-name="Group 10" transform="translate(0)" clip-path="url(#clip-path)">
      <path id="Path_15" data-name="Path 15" d="M28.42,4.461a.511.511,0,0,1-.25-.492.569.569,0,0,1,.363-.438,3.649,3.649,0,0,1,1.9-.069C27.519,1.366,22.843,0,18.154,0S8.789,1.366,5.878,3.462a3.649,3.649,0,0,1,1.9.069.569.569,0,0,1,.363.438.511.511,0,0,1-.25.492C7.812,4.509,1.3,8.861,0,13.832a5.815,5.815,0,0,1,1.959-1.08.748.748,0,0,1,.639.112.548.548,0,0,1,.187.238.469.469,0,0,1,.02.286c-.019.08-1.628,6.874,1,10.819a6.979,6.979,0,0,1,.307-1.481.582.582,0,0,1,.237-.279.744.744,0,0,1,.383-.111.706.706,0,0,1,.388.1.55.55,0,0,1,.239.278c.025.059,2.178,5.26,6.629,7.719a4.246,4.246,0,0,1-.069-2,.547.547,0,0,1,.17-.265.693.693,0,0,1,.306-.152.84.84,0,0,1,.163-.016.71.71,0,0,1,.488.182c.845.786,3.4,2.833,5.115,2.833s4.269-2.047,5.114-2.833a.673.673,0,0,1,.3-.161.756.756,0,0,1,.353,0,.694.694,0,0,1,.306.152.547.547,0,0,1,.17.265,4.245,4.245,0,0,1-.069,2c4.451-2.459,6.6-7.66,6.629-7.719a.609.609,0,0,1,.364-.33.761.761,0,0,1,.53.007.6.6,0,0,1,.352.339,6.981,6.981,0,0,1,.307,1.481c2.629-3.945,1.014-10.739,1-10.819a.469.469,0,0,1,.02-.286.547.547,0,0,1,.187-.238.693.693,0,0,1,.3-.13.751.751,0,0,1,.337.018,5.812,5.812,0,0,1,1.959,1.08C35.006,8.86,28.5,4.509,28.42,4.461Zm.5,7.2a8.948,8.948,0,0,1-4.457,5.949.9.9,0,0,1-.05-.1A49.247,49.247,0,0,1,21.4,10.865c.194-.588,1.052-.882,1.772-.957.97-.107,1.872.139,2.085.572h0a.66.66,0,0,0,.528.348.724.724,0,0,0,.617-.216.5.5,0,0,0,.089-.564C25.96,8.967,24.358,8.631,23,8.775c-1.615.176-2.773.973-2.955,2.037a.566.566,0,0,0,.019.251,51.2,51.2,0,0,0,3.149,6.949,5.658,5.658,0,0,1-.225,5c-2.491-.139-3.518-1.112-3.919-1.753h0a4.269,4.269,0,0,0,1.981-1,3.325,3.325,0,0,0,1.03-1.76.505.505,0,0,0-.144-.465.743.743,0,0,0-.519-.2H14.893a.743.743,0,0,0-.52.2.505.505,0,0,0-.144.465,3.313,3.313,0,0,0,1.029,1.759,4.258,4.258,0,0,0,1.982,1c-.4.641-1.434,1.62-3.919,1.759a5.658,5.658,0,0,1-.225-5h0a41.955,41.955,0,0,0,3-6.965.431.431,0,0,0,.025-.235c-.182-1.069-1.321-1.865-2.9-2.037-1.321-.144-2.88.2-3.4,1.272a.5.5,0,0,0,.089.564.724.724,0,0,0,.617.217.66.66,0,0,0,.528-.348c.207-.428,1.07-.673,2-.577.689.075,1.534.374,1.715.968a41.1,41.1,0,0,1-2.873,6.639.717.717,0,0,1-.05.1,9.065,9.065,0,0,1-4.457-5.949,3.942,3.942,0,0,1,.177-2.219A4.544,4.544,0,0,1,8.946,7.551a11.967,11.967,0,0,1,9.114-2.443.554.554,0,0,0,.188,0,11.952,11.952,0,0,1,9.114,2.443,4.545,4.545,0,0,1,1.381,1.886,3.942,3.942,0,0,1,.177,2.219ZM18.154,26.26a5.107,5.107,0,0,1-4.176-2.154,5.84,5.84,0,0,0,4.176-1.956,5.839,5.839,0,0,0,4.176,1.956A5.107,5.107,0,0,1,18.154,26.26Zm-2.329-7.286h4.657A2.476,2.476,0,0,1,19.1,20.067a3,3,0,0,1-1.886,0,2.475,2.475,0,0,1-1.385-1.094Z" transform="translate(0.002 0)"/>
      <path id="Path_16" data-name="Path 16" d="M370.04,405.42a.951.951,0,1,1-.939-.8.879.879,0,0,1,.939.8" transform="translate(-356.278 -393.465)"/>
      <path id="Path_17" data-name="Path 17" d="M700.55,405.42a.951.951,0,1,1-.939-.8.879.879,0,0,1,.939.8" transform="translate(-676.121 -393.465)"/>
    </g>
  </g>
  <path id="Path_18" data-name="Path 18" d="M7.22-34.24c-.066-.1-.249-.3-.249-.445,0-.28.382-.231.565-.231h3.52c.515,0,.8.082.8.643a.734.734,0,0,0,.8.775.844.844,0,0,0,.863-.957,2.241,2.241,0,0,0-.78-1.567,2.362,2.362,0,0,0-1.644-.544H7.569a2.234,2.234,0,0,0-1.378.3,1.835,1.835,0,0,0-.88,1.584,1.975,1.975,0,0,0,.548,1.353l5.7,7.275c.066.1.3.346.3.478,0,.247-.415.2-.548.2H7.7c-.465,0-.731-.066-.731-.561a.792.792,0,0,0-.78-.841.892.892,0,0,0-.88.99,2.081,2.081,0,0,0,.78,1.534,2.459,2.459,0,0,0,1.677.528h3.653A1.868,1.868,0,0,0,13.513-25.6a2.131,2.131,0,0,0-.581-1.369Zm15.807-.676h2.441a.763.763,0,0,0,.83-.825.763.763,0,0,0-.83-.825H18.926a.763.763,0,0,0-.83.825.763.763,0,0,0,.83.825h2.441v9.535H18.926a.763.763,0,0,0-.83.825.763.763,0,0,0,.83.825h6.542a.763.763,0,0,0,.83-.825.763.763,0,0,0-.83-.825H23.028Zm11.955,1.254-2.026-2.9H30.881v12.01a.723.723,0,0,0,.83.825.723.723,0,0,0,.83-.825v-9.733h.033l1.577,2.326v.264c0,.511.232.99.83.99.631,0,.83-.478.83-.99v-.264l1.577-2.326h.033v9.733a.723.723,0,0,0,.83.825.723.723,0,0,0,.83-.825v-12.01H37.008Zm8.684,9.931h4.649a3.26,3.26,0,0,0,3.553-3.431,3.553,3.553,0,0,0-1.1-2.986,3.182,3.182,0,0,0,1.1-2.606c0-2.326-1.112-3.811-3.553-3.811H43.667Zm1.66-5.592h2.989c1.511,0,1.893.775,1.893,2.161,0,1.254-.7,1.782-1.893,1.782H45.327Zm0-5.592h2.989c1.511,0,1.893.775,1.893,2.161,0,1.254-.7,1.782-1.893,1.782H45.327Zm11.125,10.36c-.116.4.332.825.8.825a.987.987,0,0,0,.9-.825l.631-1.98h3.537l.614,1.98a.987.987,0,0,0,.9.825c.465,0,.913-.429.8-.825l-3.2-11.168c-.116-.429-.315-.841-.863-.841-.531,0-.714.4-.847.841Zm5.4-3.629H59.241l1.3-4.471h.033Z" transform="translate(40.541 39.608)"/>
  <path id="Path_19" data-name="Path 19" d="M6.375-21.794H8.252c.326,0,.769-.069.769-.556s-.4-.556-.769-.556H6.375v-1.135c0-.382-.082-.764-.56-.764s-.56.382-.56.764v1.135H4.894c-.373,0-.769.081-.769.556s.443.556.769.556h.361v3.023a1.994,1.994,0,0,0,.408,1.552,1.83,1.83,0,0,0,1.446.556h.571A1.819,1.819,0,0,0,9.22-17.23a1.654,1.654,0,0,0,.385-.927.561.561,0,0,0-.571-.556.572.572,0,0,0-.56.452c-.117.452-.326.486-.781.486H7.121c-.769,0-.746-.359-.746-.985Zm11.437,5.131c.326,0,.769-.069.769-.556s-.4-.556-.769-.556h-2.4a.945.945,0,0,1-.746-.208l-.28-.3a.543.543,0,0,1-.163-.324v-.371h3.591c.665,0,.769-.185.769-.822v-.892A1.57,1.57,0,0,0,18-22.141l-.455-.359a1.607,1.607,0,0,0-1.236-.405H15.282a1.511,1.511,0,0,0-1.236.463l-.4.336a1.461,1.461,0,0,0-.548,1.332v2.143a1.379,1.379,0,0,0,.571,1.251l.478.417a1.2,1.2,0,0,0,1,.3Zm-3.591-4.216a.505.505,0,0,1,.233-.51l.385-.278a.906.906,0,0,1,.571-.127h.944a.8.8,0,0,1,.536.139l.431.371c.152.139.14.313.14.521v.672H14.221Zm8.126,3.116a.872.872,0,0,0-.268.521.57.57,0,0,0,.56.579c.338,0,.56-.336.758-.579l1.422-1.737,1.422,1.737c.2.243.42.579.758.579a.57.57,0,0,0,.56-.579.872.872,0,0,0-.268-.521l-1.714-2.015,1.714-2.015a.872.872,0,0,0,.268-.521.581.581,0,0,0-.56-.591c-.338,0-.56.347-.758.591l-1.422,1.737L23.4-22.315c-.2-.243-.42-.591-.758-.591a.581.581,0,0,0-.56.591.872.872,0,0,0,.268.521l1.714,2.015Zm10.959-4.031h1.877c.326,0,.769-.069.769-.556s-.4-.556-.769-.556H33.306v-1.135c0-.382-.082-.764-.56-.764s-.56.382-.56.764v1.135h-.361c-.373,0-.769.081-.769.556s.443.556.769.556h.361v3.023a1.994,1.994,0,0,0,.408,1.552,1.83,1.83,0,0,0,1.446.556h.571a1.819,1.819,0,0,0,1.539-.568,1.654,1.654,0,0,0,.385-.927.561.561,0,0,0-.571-.556.572.572,0,0,0-.56.452c-.117.452-.326.486-.781.486h-.571c-.769,0-.746-.359-.746-.985Zm18.968,0c.8,0,.991.139.991.973v.255h-2.4a1.846,1.846,0,0,0-1.306.417,1.446,1.446,0,0,0-.548,1.239v.486a1.549,1.549,0,0,0,.583,1.367,1.758,1.758,0,0,0,1.271.394h1.073a1.019,1.019,0,0,0,.688-.162l.769-.394a.568.568,0,0,0,.571.556c.373,0,.536-.324.525-.649l-.117-3.776a1.6,1.6,0,0,0-.5-1.32,1.774,1.774,0,0,0-1.446-.5H50.886c-.373,0-.769.081-.769.556s.443.556.769.556Zm.256,2.34c.618,0,.793.185.793.8v.243l-1.236.637H50.851c-.268,0-.723-.081-.723-.452v-.741c0-.405.443-.486.746-.486Zm9.07-2.34a.819.819,0,0,1,.688.22.6.6,0,0,0,.478.232.568.568,0,0,0,.571-.556c0-.313-.233-.452-.443-.625a1.628,1.628,0,0,0-1.294-.382H59.688a1.424,1.424,0,0,0-1.539,1.413,1.371,1.371,0,0,0,.979,1.355l2.635,1.193c.256.116.583.29.583.556,0,.649-.536.614-.933.614H59.9a1.186,1.186,0,0,1-.9-.243.541.541,0,0,0-.431-.2.571.571,0,0,0-.583.556c0,.278.3.486.513.649a2.019,2.019,0,0,0,1.4.347h1.725c1.073,0,1.842-.533,1.842-1.656a1.582,1.582,0,0,0-1.1-1.575l-2.8-1.263c-.163-.069-.3-.139-.3-.324,0-.359.4-.313.63-.313Zm8.977,0a.819.819,0,0,1,.688.22.6.6,0,0,0,.478.232.568.568,0,0,0,.571-.556c0-.313-.233-.452-.443-.625a1.628,1.628,0,0,0-1.294-.382H68.665a1.424,1.424,0,0,0-1.539,1.413,1.371,1.371,0,0,0,.979,1.355l2.635,1.193c.256.116.583.29.583.556,0,.649-.536.614-.933.614H68.875a1.186,1.186,0,0,1-.9-.243.541.541,0,0,0-.431-.2.571.571,0,0,0-.583.556c0,.278.3.486.513.649a2.019,2.019,0,0,0,1.4.347H70.6c1.073,0,1.842-.533,1.842-1.656a1.582,1.582,0,0,0-1.1-1.575l-2.8-1.263c-.163-.069-.3-.139-.3-.324,0-.359.4-.313.63-.313Zm8.685-.336c0-.66-.187-.776-.828-.776H77.257c-.373,0-.769.081-.769.556s.443.556.769.556h.886v4.019h-.886c-.373,0-.769.081-.769.556s.443.556.769.556H80.1c.326,0,.769-.069.769-.556s-.4-.556-.769-.556h-.839Zm-1.69-2.49a.461.461,0,0,0,.525.521h.641a.461.461,0,0,0,.525-.521v-.533a.461.461,0,0,0-.525-.521H78.1a.461.461,0,0,0-.525.521Zm10.959,2.826a.819.819,0,0,1,.688.22.6.6,0,0,0,.478.232.568.568,0,0,0,.571-.556c0-.313-.233-.452-.443-.625a1.628,1.628,0,0,0-1.294-.382H86.619a1.424,1.424,0,0,0-1.539,1.413,1.371,1.371,0,0,0,.979,1.355l2.635,1.193c.256.116.583.29.583.556,0,.649-.536.614-.933.614H86.828a1.186,1.186,0,0,1-.9-.243.541.541,0,0,0-.431-.2.571.571,0,0,0-.583.556c0,.278.3.486.513.649a2.019,2.019,0,0,0,1.4.347h1.725c1.073,0,1.842-.533,1.842-1.656a1.582,1.582,0,0,0-1.1-1.575l-2.8-1.263c-.163-.069-.3-.139-.3-.324,0-.359.4-.313.63-.313Zm7.613,0H98.02c.326,0,.769-.069.769-.556s-.4-.556-.769-.556H96.143v-1.135c0-.382-.082-.764-.56-.764s-.56.382-.56.764v1.135h-.361c-.373,0-.769.081-.769.556s.443.556.769.556h.361v3.023a1.994,1.994,0,0,0,.408,1.552,1.83,1.83,0,0,0,1.446.556h.571a1.819,1.819,0,0,0,1.539-.568,1.653,1.653,0,0,0,.385-.927.561.561,0,0,0-.571-.556.572.572,0,0,0-.56.452c-.117.452-.326.486-.781.486h-.571c-.769,0-.746-.359-.746-.985Zm9.991,0c.8,0,.991.139.991.973v.255h-2.4a1.846,1.846,0,0,0-1.306.417,1.446,1.446,0,0,0-.548,1.239v.486a1.549,1.549,0,0,0,.583,1.367,1.758,1.758,0,0,0,1.271.394H105.8a1.019,1.019,0,0,0,.688-.162l.769-.394a.568.568,0,0,0,.571.556c.373,0,.536-.324.525-.649l-.117-3.776a1.6,1.6,0,0,0-.5-1.32,1.774,1.774,0,0,0-1.446-.5h-1.539c-.373,0-.769.081-.769.556s.443.556.769.556Zm.256,2.34c.618,0,.793.185.793.8v.243l-1.236.637h-1.236c-.268,0-.723-.081-.723-.452v-.741c0-.405.443-.486.746-.486Zm8.231-2.235a.678.678,0,0,1,.35-.1h.373c.676,0,.734.266.758.95l.117,3.428c.012.371.1.753.56.753.5,0,.56-.44.548-.834l-.117-3.5c-.023-.6,0-1.077-.5-1.506a1.419,1.419,0,0,0-1.038-.405h-.828a1.844,1.844,0,0,0-.968.371l-.909.591v-.151c0-.394-.058-.811-.56-.811s-.56.417-.56.822v4.656c0,.382.082.764.56.764s.56-.382.56-.764v-3.232Zm8.452-.1h1.877c.326,0,.769-.069.769-.556s-.4-.556-.769-.556h-1.877v-1.135c0-.382-.082-.764-.56-.764s-.56.382-.56.764v1.135h-.361c-.373,0-.769.081-.769.556s.443.556.769.556h.361v3.023a1.994,1.994,0,0,0,.408,1.552,1.83,1.83,0,0,0,1.446.556h.571a1.819,1.819,0,0,0,1.539-.568,1.653,1.653,0,0,0,.385-.927.561.561,0,0,0-.571-.556.572.572,0,0,0-.56.452c-.117.452-.326.486-.781.486h-.571c-.769,0-.746-.359-.746-.985Z" transform="translate(41.619 45.486)"/>
</svg>
