<svg id="thumbs-down-line" xmlns="http://www.w3.org/2000/svg" width="14.353" height="13.477" viewBox="0 0 14.353 13.477">
  <path id="Path_7" data-name="Path 7" d="M12,6.689A11.552,11.552,0,0,1,16.2,4.9h2.691a7.48,7.48,0,0,1,1.484,2.726,11.977,11.977,0,0,1,.592,3.551H16.933v4.484a.919.919,0,0,1-.565.758,20.367,20.367,0,0,0-1.9-3.91A5.107,5.107,0,0,0,12,10.765v.955a4.094,4.094,0,0,1,1.753,1.345,22.806,22.806,0,0,1,1.933,4.112.448.448,0,0,0,.534.283,2.048,2.048,0,0,0,1.61-1.8V12.07h3.587a.448.448,0,0,0,.448-.448,13,13,0,0,0-.628-4.314,7.148,7.148,0,0,0-1.883-3.238A.448.448,0,0,0,19.081,4H16.2A11.033,11.033,0,0,0,12,5.627Z" transform="translate(-7.516 -3.998)"/>
  <path id="Path_8" data-name="Path 8" d="M2,5H5.139a.448.448,0,0,1,.448.448v7.175a.448.448,0,0,1-.448.448H2Zm2.691.9H2.9v6.278H4.691Z" transform="translate(-2 -4.551)"/>
</svg>
