<svg xmlns="http://www.w3.org/2000/svg" width="11.647" height="13.516" viewBox="0 0 11.647 13.516">
  <path id="bx-message-error" d="M8.6.375V1.612H1.237v8.6H0v-8.6A1.194,1.194,0,0,1,.36.734,1.192,1.192,0,0,1,1.237.375Zm1.841,2.473a1.159,1.159,0,0,1,.848.36,1.162,1.162,0,0,1,.36.848v8.6a1.194,1.194,0,0,1-.36.877,1.159,1.159,0,0,1-.848.359H3.681a1.227,1.227,0,0,1-1.237-1.237v-8.6a1.159,1.159,0,0,1,.36-.848,1.2,1.2,0,0,1,.877-.36h6.758Zm0,9.806v-8.6H3.681v8.6h6.758Z" transform="translate(0 -0.375)"/>
</svg>
