<svg id="Lion"
  xmlns="http://www.w3.org/2000/svg"
  xmlns:xlink="http://www.w3.org/1999/xlink" width="31.568" height="31.928" viewBox="0 0 31.568 31.928">
  <defs>
    <clipPath id="clip-path">
      <rect id="Rectangle_11" data-name="Rectangle 11" width="31.568" height="31.928" fill="none"/>
    </clipPath>
  </defs>
  <g id="Group_10" data-name="Group 10" transform="translate(0)" clip-path="url(#clip-path)" fill="#fff">
    <path id="Path_15" data-name="Path 15" d="M24.921,4.657a.57.57,0,0,1-.22-.513.581.581,0,0,1,.318-.458,2.709,2.709,0,0,1,1.663-.072A17.161,17.161,0,0,0,15.919,0,17.161,17.161,0,0,0,5.154,3.614a2.709,2.709,0,0,1,1.663.072.581.581,0,0,1,.318.458.57.57,0,0,1-.22.513C6.85,4.708,1.142,9.25,0,14.44a4.932,4.932,0,0,1,1.718-1.127.576.576,0,0,1,.724.365.578.578,0,0,1,.017.3c-.016.084-1.427,7.177.873,11.3A8.511,8.511,0,0,1,3.6,23.726a.593.593,0,0,1,.208-.292.578.578,0,0,1,.335-.116.543.543,0,0,1,.34.1.558.558,0,0,1,.209.29c.022.061,1.91,5.491,5.813,8.059a5.252,5.252,0,0,1-.06-2.093A.593.593,0,0,1,10.6,29.4a.577.577,0,0,1,.268-.159.623.623,0,0,1,.143-.017.569.569,0,0,1,.428.19c.741.82,2.981,2.958,4.485,2.958s3.744-2.137,4.485-2.958a.569.569,0,0,1,.261-.168.56.56,0,0,1,.309,0,.578.578,0,0,1,.268.159.592.592,0,0,1,.149.276,5.252,5.252,0,0,1-.06,2.093c3.9-2.567,5.791-8,5.813-8.059a.582.582,0,0,1,.319-.344.568.568,0,0,1,.465.007.583.583,0,0,1,.308.354,8.513,8.513,0,0,1,.269,1.546c2.305-4.118.889-11.212.873-11.3a.577.577,0,0,1,.017-.3.587.587,0,0,1,.428-.384.557.557,0,0,1,.3.019,4.929,4.929,0,0,1,1.718,1.127c-1.142-5.19-6.85-9.733-6.917-9.783Zm.439,7.512a9.208,9.208,0,0,1-3.908,6.211,1.026,1.026,0,0,1-.044-.106,56.626,56.626,0,0,1-2.646-6.931c.17-.614.922-.921,1.553-1,.851-.112,1.641.145,1.828.6h0a.586.586,0,0,0,.463.363.58.58,0,0,0,.541-.226.6.6,0,0,0,.078-.589c-.461-1.127-1.866-1.479-3.058-1.328a2.743,2.743,0,0,0-2.591,2.126.7.7,0,0,0,.016.262A58.889,58.889,0,0,0,20.354,18.8a6.922,6.922,0,0,1-.2,5.223c-2.185-.145-3.085-1.161-3.436-1.83h0a3.568,3.568,0,0,0,1.737-1.048,3.662,3.662,0,0,0,.9-1.837.582.582,0,0,0-.582-.692h-5.72a.581.581,0,0,0-.582.692,3.649,3.649,0,0,0,.9,1.836,3.556,3.556,0,0,0,1.738,1.044c-.351.67-1.257,1.691-3.436,1.836a6.922,6.922,0,0,1-.2-5.223h0a48.555,48.555,0,0,0,2.635-7.271.53.53,0,0,0,.022-.246,2.705,2.705,0,0,0-2.547-2.126,2.721,2.721,0,0,0-2.981,1.328.6.6,0,0,0,.078.589.58.58,0,0,0,.541.226.586.586,0,0,0,.463-.363c.181-.446.939-.7,1.751-.6.6.078,1.345.391,1.5,1.01a47.542,47.542,0,0,1-2.52,6.931.809.809,0,0,1-.044.1,9.334,9.334,0,0,1-3.908-6.211,4.857,4.857,0,0,1,.155-2.317A4.791,4.791,0,0,1,7.845,7.883a9.328,9.328,0,0,1,7.992-2.55.409.409,0,0,0,.165,0,9.317,9.317,0,0,1,7.992,2.55,4.792,4.792,0,0,1,1.211,1.969,4.857,4.857,0,0,1,.155,2.317ZM15.919,27.415a4.319,4.319,0,0,1-3.661-2.249,4.89,4.89,0,0,0,3.661-2.043,4.89,4.89,0,0,0,3.661,2.043A4.318,4.318,0,0,1,15.919,27.415Zm-2.042-7.607h4.084a2.284,2.284,0,0,1-1.215,1.142,2.235,2.235,0,0,1-1.654,0,2.284,2.284,0,0,1-1.215-1.142Z" transform="translate(0.002 0)"/>
    <path id="Path_16" data-name="Path 16" d="M369.809,405.455a.823.823,0,1,1-.823-.837.83.83,0,0,1,.823.837" transform="translate(-357.741 -392.974)"/>
    <path id="Path_17" data-name="Path 17" d="M700.319,405.455a.823.823,0,1,1-.823-.837.83.83,0,0,1,.823.837" transform="translate(-678.897 -392.974)"/>
  </g>
</svg>
