<svg xmlns="http://www.w3.org/2000/svg" width="283.889" height="50.98"><defs><clipPath id="a"><path fill="#fff" d="M0 0h51v50.981H0z"/></clipPath></defs><g fill="#fff" clip-path="url(#a)"><path d="M40.537 7.447a.9.9 0 0 1-.357-.821.93.93 0 0 1 .518-.732 4.48 4.48 0 0 1 2.706-.116C39.251 2.28 32.582.001 25.895.001S12.539 2.28 8.387 5.778a4.48 4.48 0 0 1 2.705.116.93.93 0 0 1 .518.732.9.9 0 0 1-.357.821c-.107.08-9.392 7.345-11.249 15.644a8 8 0 0 1 2.794-1.8.94.94 0 0 1 .911.187.91.91 0 0 1 .295.872c-.027.134-2.322 11.477 1.42 18.063a13.4 13.4 0 0 1 .437-2.472.95.95 0 0 1 .884-.651.894.894 0 0 1 .893.625c.036.1 3.107 8.781 9.455 12.887a8.3 8.3 0 0 1-.1-3.347.94.94 0 0 1 .679-.7 1 1 0 0 1 .232-.027.93.93 0 0 1 .7.3c1.206 1.312 4.848 4.73 7.295 4.73s6.089-3.418 7.294-4.73a.93.93 0 0 1 .928-.277.94.94 0 0 1 .679.7 8.3 8.3 0 0 1-.1 3.347c6.348-4.105 9.419-12.788 9.455-12.887a.938.938 0 0 1 1.777.027 13.4 13.4 0 0 1 .437 2.472c3.75-6.586 1.446-17.929 1.42-18.063a.91.91 0 0 1 .295-.874.92.92 0 0 1 .911-.187 8 8 0 0 1 2.794 1.8c-1.86-8.295-11.144-15.559-11.252-15.639m.714 12.012c-1.268 6.149-4.758 8.951-6.357 9.933a2 2 0 0 1-.071-.169 90 90 0 0 1-4.3-11.084c.277-.982 1.5-1.472 2.527-1.6 1.384-.178 2.669.232 2.973.955a.951.951 0 0 0 1.759-.723c-.75-1.8-3.036-2.365-4.973-2.124-2.3.295-3.955 1.624-4.214 3.4a1.1 1.1 0 0 0 .027.419 93 93 0 0 0 4.491 11.6c1.053 2.106.866 5.479-.321 8.353-3.553-.232-5.018-1.856-5.589-2.927a5.82 5.82 0 0 0 4.294-4.614.94.94 0 0 0-.205-.776.98.98 0 0 0-.741-.331h-9.3a.98.98 0 0 0-.741.33.94.94 0 0 0-.205.776 5.8 5.8 0 0 0 4.295 4.605c-.571 1.071-2.044 2.7-5.589 2.936-1.187-2.874-1.375-6.247-.321-8.353a77 77 0 0 0 4.285-11.628.84.84 0 0 0 .029-.388c-.259-1.785-1.884-3.114-4.143-3.4-1.884-.241-4.107.33-4.848 2.124a.951.951 0 0 0 1.759.723c.295-.714 1.527-1.124 2.848-.964.982.125 2.187.625 2.446 1.615a75 75 0 0 1-4.1 11.084 1 1 0 0 1-.072.16c-1.589-1-5.1-3.837-6.357-9.933a7.64 7.64 0 0 1 2.226-6.857c3-3.168 8.116-4.774 13-4.078a.7.7 0 0 0 .268 0c4.9-.7 10 .91 13 4.078a7.64 7.64 0 0 1 2.223 6.854ZM25.895 43.84a7.04 7.04 0 0 1-5.955-3.6 7.98 7.98 0 0 0 5.955-3.266 7.98 7.98 0 0 0 5.955 3.266 7.04 7.04 0 0 1-5.955 3.6m-3.321-12.164h6.642a3.692 3.692 0 0 1-6.642 0"/><path d="M19.627 19.96a1.339 1.339 0 1 1-1.339-1.339 1.34 1.34 0 0 1 1.339 1.339M34.84 19.96a1.339 1.339 0 1 1-1.339-1.339 1.34 1.34 0 0 1 1.339 1.339"/></g><path fill="#fff" d="M80.746 8.962c-.112-.165-.421-.5-.421-.744 0-.468.646-.386.954-.386h5.951c.87 0 1.347.138 1.347 1.074a1.234 1.234 0 0 0 1.347 1.294 1.416 1.416 0 0 0 1.46-1.6 3.73 3.73 0 0 0-1.319-2.616 4.03 4.03 0 0 0-2.779-.909h-5.95a3.8 3.8 0 0 0-2.33.5 3.06 3.06 0 0 0-1.488 2.644 3.28 3.28 0 0 0 .926 2.258l9.628 12.146c.112.165.505.578.505.8 0 .413-.7.33-.926.33H81.56c-.786 0-1.235-.11-1.235-.936a1.33 1.33 0 0 0-1.319-1.4 1.5 1.5 0 0 0-1.488 1.652 3.46 3.46 0 0 0 1.319 2.556 4.2 4.2 0 0 0 2.835.881h6.176c1.937 0 3.537-1.047 3.537-3.112a3.54 3.54 0 0 0-.982-2.286Zm26.724-1.129h4.126a1.283 1.283 0 0 0 1.4-1.377 1.283 1.283 0 0 0-1.4-1.377h-11.06a1.283 1.283 0 0 0-1.4 1.377 1.283 1.283 0 0 0 1.4 1.377h4.126v15.919h-4.126a1.283 1.283 0 0 0-1.4 1.377 1.283 1.283 0 0 0 1.4 1.377h11.06a1.283 1.283 0 0 0 1.4-1.377 1.283 1.283 0 0 0-1.4-1.377h-4.126Zm20.211 2.093-3.425-4.847h-3.509v20.05c0 .881.393 1.377 1.4 1.377s1.4-.5 1.4-1.377V8.88h.06l2.667 3.883v.441c0 .854.393 1.652 1.4 1.652 1.067 0 1.4-.8 1.4-1.652v-.441l2.667-3.883h.066v16.249c0 .881.393 1.377 1.4 1.377s1.4-.5 1.4-1.377V5.079h-3.5Zm14.681 16.58h7.86c3.565 0 6.007-2.121 6.007-5.729 0-2.038-.253-3.5-1.853-4.985a5.28 5.28 0 0 0 1.853-4.347c0-3.883-1.881-6.362-6.007-6.362h-7.86Zm2.807-9.336h5.053c2.554 0 3.2 1.294 3.2 3.608 0 2.093-1.179 2.974-3.2 2.974h-5.053Zm0-9.336h5.053c2.554 0 3.2 1.294 3.2 3.608 0 2.093-1.179 2.974-3.2 2.974h-5.053Zm18.808 17.3c-.2.661.561 1.377 1.347 1.377a1.66 1.66 0 0 0 1.516-1.377l1.067-3.3h5.979l1.039 3.3a1.66 1.66 0 0 0 1.516 1.377c.786 0 1.544-.716 1.347-1.377L172.37 6.489c-.2-.716-.533-1.4-1.46-1.4-.9 0-1.207.661-1.432 1.4Zm9.123-6.059h-4.408l2.19-7.464h.056ZM81.139 39.551h3.171c.552 0 1.3-.116 1.3-.928 0-.793-.67-.928-1.3-.928h-3.171v-1.9c0-.638-.138-1.276-.946-1.276s-.946.638-.946 1.276v1.9h-.611c-.631 0-1.3.135-1.3.928 0 .812.749.928 1.3.928h.611v5.047a3.3 3.3 0 0 0 .69 2.591 3.12 3.12 0 0 0 2.444.928h.966a3.1 3.1 0 0 0 2.6-.948 2.74 2.74 0 0 0 .65-1.547.94.94 0 0 0-.966-.928.964.964 0 0 0-.946.754c-.2.754-.552.812-1.321.812H82.4c-1.3 0-1.261-.6-1.261-1.644Zm19.335 8.566c.552 0 1.3-.116 1.3-.928 0-.793-.67-.928-1.3-.928H96.41a1.61 1.61 0 0 1-1.261-.348l-.473-.5a.9.9 0 0 1-.276-.541v-.621h6.07c1.123 0 1.3-.309 1.3-1.373v-1.489a2.6 2.6 0 0 0-.985-2.417l-.769-.6a2.74 2.74 0 0 0-2.089-.677h-1.73a2.57 2.57 0 0 0-2.089.773l-.67.561a2.42 2.42 0 0 0-.926 2.224v3.577a2.29 2.29 0 0 0 .966 2.088l.808.7a2.04 2.04 0 0 0 1.7.5Zm-6.07-7.039a.84.84 0 0 1 .394-.851l.65-.464a1.55 1.55 0 0 1 .962-.212h1.6a1.36 1.36 0 0 1 .907.232l.729.619c.256.232.237.522.237.87v1.122h-5.48Zm13.737 5.2a1.45 1.45 0 0 0-.453.87.96.96 0 0 0 .946.967c.572 0 .946-.561 1.281-.967l2.4-2.9 2.4 2.9c.335.406.71.967 1.281.967a.96.96 0 0 0 .946-.967 1.45 1.45 0 0 0-.453-.87l-2.9-3.365 2.9-3.365a1.45 1.45 0 0 0 .453-.87.975.975 0 0 0-.946-.986c-.572 0-.946.58-1.281.986l-2.4 2.9-2.4-2.9c-.335-.406-.71-.986-1.281-.986a.975.975 0 0 0-.946.986 1.45 1.45 0 0 0 .453.87l2.9 3.365Zm18.527-6.727h3.173c.552 0 1.3-.116 1.3-.928 0-.793-.67-.928-1.3-.928h-3.173v-1.9c0-.638-.138-1.276-.946-1.276s-.946.638-.946 1.276v1.9h-.611c-.631 0-1.3.135-1.3.928 0 .812.749.928 1.3.928h.611v5.047a3.3 3.3 0 0 0 .69 2.591 3.12 3.12 0 0 0 2.444.928h.966a3.1 3.1 0 0 0 2.6-.948 2.74 2.74 0 0 0 .65-1.547.94.94 0 0 0-.966-.928.964.964 0 0 0-.946.754c-.2.754-.552.812-1.321.812h-.966c-1.3 0-1.261-.6-1.261-1.644Zm32.067 0c1.36 0 1.675.232 1.675 1.624v.425h-4.06a3.15 3.15 0 0 0-2.207.7 2.4 2.4 0 0 0-.926 2.069v.812a2.57 2.57 0 0 0 .985 2.282 3 3 0 0 0 2.148.657h1.813a1.74 1.74 0 0 0 1.163-.271l1.3-.657a.955.955 0 0 0 .966.928.93.93 0 0 0 .887-1.083l-.2-6.3a2.66 2.66 0 0 0-.848-2.2 3.02 3.02 0 0 0-2.444-.832h-2.6c-.631 0-1.3.135-1.3.928 0 .812.749.928 1.3.928Zm.434 3.906c1.045 0 1.34.309 1.34 1.334v.406l-2.089 1.064h-2.09c-.453 0-1.222-.135-1.222-.754v-1.238c0-.677.749-.812 1.261-.812Zm15.333-3.906a1.4 1.4 0 0 1 1.163.367 1.01 1.01 0 0 0 .808.387.955.955 0 0 0 .966-.928c0-.522-.394-.754-.749-1.044a2.78 2.78 0 0 0-2.188-.638h-3.232a2.4 2.4 0 0 0-2.6 2.359 2.29 2.29 0 0 0 1.656 2.262l4.454 1.992c.434.193.985.483.985.928 0 1.083-.907 1.025-1.577 1.025h-2.563a2.02 2.02 0 0 1-1.518-.406.92.92 0 0 0-.729-.329.96.96 0 0 0-.985.928c0 .464.512.812.867 1.083a3.45 3.45 0 0 0 2.365.58h2.917c1.813 0 3.114-.89 3.114-2.765a2.64 2.64 0 0 0-1.853-2.63l-4.73-2.108c-.276-.116-.512-.232-.512-.541 0-.6.67-.522 1.064-.522Zm15.176 0a1.4 1.4 0 0 1 1.163.367 1.01 1.01 0 0 0 .808.387.955.955 0 0 0 .966-.928c0-.522-.394-.754-.749-1.044a2.78 2.78 0 0 0-2.188-.638h-3.232a2.4 2.4 0 0 0-2.6 2.359 2.29 2.29 0 0 0 1.656 2.262l4.454 1.992c.434.193.985.483.985.928 0 1.083-.907 1.025-1.577 1.025h-2.562a2.02 2.02 0 0 1-1.518-.406.92.92 0 0 0-.729-.329.96.96 0 0 0-.985.928c0 .464.512.812.867 1.083a3.45 3.45 0 0 0 2.365.58h2.917c1.813 0 3.114-.89 3.114-2.765a2.64 2.64 0 0 0-1.853-2.63l-4.73-2.108c-.276-.116-.512-.232-.512-.541 0-.6.67-.522 1.064-.522Zm14.684-.561c0-1.1-.315-1.3-1.4-1.3h-1.991c-.631 0-1.3.135-1.3.928 0 .812.749.928 1.3.928h1.5v6.71h-1.5c-.631 0-1.3.135-1.3.928 0 .812.749.928 1.3.928h4.809c.552 0 1.3-.116 1.3-.928 0-.793-.67-.928-1.3-.928h-1.419Zm-2.858-4.158a.775.775 0 0 0 .887.87h1.084a.775.775 0 0 0 .887-.87v-.89a.775.775 0 0 0-.887-.87h-1.084a.775.775 0 0 0-.887.87Zm18.527 4.719a1.4 1.4 0 0 1 1.163.367 1.01 1.01 0 0 0 .808.387.955.955 0 0 0 .966-.928c0-.522-.394-.754-.749-1.044a2.78 2.78 0 0 0-2.188-.638h-3.232a2.4 2.4 0 0 0-2.6 2.359 2.29 2.29 0 0 0 1.656 2.262l4.454 1.992c.434.193.985.483.985.928 0 1.083-.907 1.025-1.577 1.025h-2.562a2.02 2.02 0 0 1-1.518-.406.92.92 0 0 0-.729-.329.96.96 0 0 0-.985.928c0 .464.512.812.867 1.083a3.45 3.45 0 0 0 2.365.58h2.917c1.813 0 3.114-.89 3.114-2.765a2.64 2.64 0 0 0-1.853-2.63l-4.73-2.108c-.276-.116-.512-.232-.512-.541 0-.6.67-.522 1.064-.522Zm12.87 0h3.173c.552 0 1.3-.116 1.3-.928 0-.793-.67-.928-1.3-.928h-3.173v-1.9c0-.638-.138-1.276-.946-1.276s-.946.638-.946 1.276v1.9h-.611c-.631 0-1.3.135-1.3.928 0 .812.749.928 1.3.928h.611v5.047a3.3 3.3 0 0 0 .69 2.591 3.12 3.12 0 0 0 2.444.928h.966a3.1 3.1 0 0 0 2.6-.948 2.74 2.74 0 0 0 .65-1.547.94.94 0 0 0-.966-.928.964.964 0 0 0-.946.754c-.2.754-.552.812-1.321.812h-.966c-1.3 0-1.261-.6-1.261-1.644Zm16.891 0c1.36 0 1.675.232 1.675 1.624v.425h-4.057a3.15 3.15 0 0 0-2.207.7 2.4 2.4 0 0 0-.926 2.069v.812a2.57 2.57 0 0 0 .985 2.282 3 3 0 0 0 2.148.657h1.813a1.74 1.74 0 0 0 1.163-.271l1.3-.657a.955.955 0 0 0 .966.928.93.93 0 0 0 .887-1.083l-.2-6.3a2.66 2.66 0 0 0-.848-2.2 3.02 3.02 0 0 0-2.444-.832h-2.6c-.631 0-1.3.135-1.3.928 0 .812.749.928 1.3.928Zm.434 3.906c1.045 0 1.34.309 1.34 1.334v.406l-2.089 1.064h-2.089c-.453 0-1.222-.135-1.222-.754v-1.238c0-.677.749-.812 1.261-.812Zm13.915-3.732a1.16 1.16 0 0 1 .591-.174h.631c1.143 0 1.242.445 1.281 1.586l.2 5.724c.02.619.177 1.257.946 1.257.847 0 .946-.735.926-1.392l-.2-5.84c-.039-1.006 0-1.8-.848-2.514a2.42 2.42 0 0 0-1.754-.677h-1.4a3.14 3.14 0 0 0-1.636.619l-1.537.986v-.249c0-.657-.1-1.354-.946-1.354-.867 0-.946.7-.946 1.373v7.774c0 .638.138 1.276.946 1.276s.946-.638.946-1.276v-5.4Zm14.289-.174h3.173c.552 0 1.3-.116 1.3-.928 0-.793-.67-.928-1.3-.928h-3.173v-1.9c0-.638-.138-1.276-.946-1.276s-.946.638-.946 1.276v1.9h-.611c-.631 0-1.3.135-1.3.928 0 .812.749.928 1.3.928h.611v5.047a3.3 3.3 0 0 0 .69 2.591 3.12 3.12 0 0 0 2.444.928h.966a3.1 3.1 0 0 0 2.6-.948 2.74 2.74 0 0 0 .65-1.547.94.94 0 0 0-.966-.928.964.964 0 0 0-.946.754c-.2.754-.552.812-1.321.812h-.966c-1.3 0-1.261-.6-1.261-1.644Z"/></svg>