<svg xmlns="http://www.w3.org/2000/svg" width="17.622" height="15.104" viewBox="0 0 17.622 15.104">
  <g id="settings-adjust" transform="translate(-2.25 -4.5)">
    <path id="Path_9" data-name="Path 9" d="M19.872,7.017h-2.58a3.148,3.148,0,0,0-6.168,0H2.25V8.276h8.873a3.148,3.148,0,0,0,6.168,0h2.58ZM14.208,9.535A1.888,1.888,0,1,1,16.1,7.647,1.855,1.855,0,0,1,14.208,9.535Z"/>
    <path id="Path_10" data-name="Path 10" d="M2.25,24.026H4.83a3.148,3.148,0,0,0,6.168,0h8.873V22.767H11a3.148,3.148,0,0,0-6.168,0H2.25Zm5.664-2.517A1.888,1.888,0,1,1,6.026,23.4,1.855,1.855,0,0,1,7.914,21.509Z" transform="translate(0 -6.939)"/>
  </g>
</svg>
