<svg id="thumbs-up-line" xmlns="http://www.w3.org/2000/svg" width="14.356" height="13.493" viewBox="0 0 14.356 13.493">
  <path id="Path_5" data-name="Path 5" d="M11.863,12.746a11.555,11.555,0,0,1-4.2,1.794H4.969a7.481,7.481,0,0,1-1.485-2.727,11.98,11.98,0,0,1-.592-3.552H6.929V3.776a.919.919,0,0,1,.565-.758,20.371,20.371,0,0,0,1.9,3.911,5.109,5.109,0,0,0,2.471,1.74V7.714a4.1,4.1,0,0,1-1.754-1.346A22.811,22.811,0,0,1,8.176,2.255a.449.449,0,0,0-.534-.274,2.027,2.027,0,0,0-1.61,1.794V7.364H2.444A.449.449,0,0,0,2,7.812a13.007,13.007,0,0,0,.628,4.315,7.149,7.149,0,0,0,1.884,3.238.449.449,0,0,0,.274.094H7.66a11.009,11.009,0,0,0,4.2-1.628Z" transform="translate(-1.992 -1.967)"/>
  <path id="Path_6" data-name="Path 6" d="M29.588,21.073h-3.14A.449.449,0,0,1,26,20.625V13.449A.449.449,0,0,1,26.449,13h3.14Zm-2.691-.9h1.794V13.9H26.9Z" transform="translate(-15.232 -8.051)"/>
</svg>
